0 Name: 0902_enhanced
1 16 0 0 0 1 0 0 0 1 0 0 0 1 0902.dat
1 14 230 -2 150 1 0 0 0 1 0 0 0 1 0_stud_box.ldr
1 14 210 -2 150 1 0 0 0 1 0 0 0 1 0_stud_box.ldr
1 14 190 -2 150 1 0 0 0 1 0 0 0 1 0_stud_box.ldr
1 14 170 -2 150 1 0 0 0 1 0 0 0 1 0_stud_box.ldr
1 14 150 -2 150 1 0 0 0 1 0 0 0 1 0_stud_box.ldr
1 14 130 -2 150 1 0 0 0 1 0 0 0 1 0_stud_box.ldr
1 14 110 -2 150 1 0 0 0 1 0 0 0 1 0_stud_box.ldr
1 14 90 -2 150 1 0 0 0 1 0 0 0 1 0_stud_box.ldr
1 14 70 -2 150 1 0 0 0 1 0 0 0 1 0_stud_box.ldr
1 14 50 -2 150 1 0 0 0 1 0 0 0 1 0_stud_box.ldr
1 14 30 -2 150 1 0 0 0 1 0 0 0 1 0_stud_box.ldr
1 14 10 -2 150 1 0 0 0 1 0 0 0 1 0_stud_box.ldr
1 14 -10 -2 150 1 0 0 0 1 0 0 0 1 0_stud_box.ldr
1 14 -30 -2 150 1 0 0 0 1 0 0 0 1 0_stud_box.ldr
1 14 -50 -2 150 1 0 0 0 1 0 0 0 1 0_stud_box.ldr
1 14 -70 -2 150 1 0 0 0 1 0 0 0 1 0_stud_box.ldr
1 14 -90 -2 150 1 0 0 0 1 0 0 0 1 0_stud_box.ldr
1 14 -110 -2 150 1 0 0 0 1 0 0 0 1 0_stud_box.ldr
1 14 -130 -2 150 1 0 0 0 1 0 0 0 1 0_stud_box.ldr
1 14 -150 -2 150 1 0 0 0 1 0 0 0 1 0_stud_box.ldr
1 14 -170 -2 150 1 0 0 0 1 0 0 0 1 0_stud_box.ldr
1 14 -190 -2 150 1 0 0 0 1 0 0 0 1 0_stud_box.ldr
1 14 -210 -2 150 1 0 0 0 1 0 0 0 1 0_stud_box.ldr
1 14 -230 -2 150 1 0 0 0 1 0 0 0 1 0_stud_box.ldr
1 14 230 -2 130 1 0 0 0 1 0 0 0 1 0_stud_box.ldr
1 14 -230 -2 130 1 0 0 0 1 0 0 0 1 0_stud_box.ldr
1 14 230 -2 110 1 0 0 0 1 0 0 0 1 0_stud_box.ldr
1 14 -230 -2 110 1 0 0 0 1 0 0 0 1 0_stud_box.ldr
1 14 230 -2 90 1 0 0 0 1 0 0 0 1 0_stud_box.ldr
1 14 130 -2 90 1 0 0 0 1 0 0 0 1 0_stud_box.ldr
1 14 110 -2 90 1 0 0 0 1 0 0 0 1 0_stud_box.ldr
1 14 90 -2 90 1 0 0 0 1 0 0 0 1 0_stud_box.ldr
1 14 70 -2 90 1 0 0 0 1 0 0 0 1 0_stud_box.ldr
1 14 50 -2 90 1 0 0 0 1 0 0 0 1 0_stud_box.ldr
1 14 30 -2 90 1 0 0 0 1 0 0 0 1 0_stud_box.ldr
1 14 10 -2 90 1 0 0 0 1 0 0 0 1 0_stud_box.ldr
1 14 -10 -2 90 1 0 0 0 1 0 0 0 1 0_stud_box.ldr
1 14 -30 -2 90 1 0 0 0 1 0 0 0 1 0_stud_box.ldr
1 14 -50 -2 90 1 0 0 0 1 0 0 0 1 0_stud_box.ldr
1 14 -70 -2 90 1 0 0 0 1 0 0 0 1 0_stud_box.ldr
1 14 -90 -2 90 1 0 0 0 1 0 0 0 1 0_stud_box.ldr
1 14 -110 -2 90 1 0 0 0 1 0 0 0 1 0_stud_box.ldr
1 14 -130 -2 90 1 0 0 0 1 0 0 0 1 0_stud_box.ldr
1 14 -150 -2 90 1 0 0 0 1 0 0 0 1 0_stud_box.ldr
1 14 -170 -2 90 1 0 0 0 1 0 0 0 1 0_stud_box.ldr
1 14 -230 -2 90 1 0 0 0 1 0 0 0 1 0_stud_box.ldr
1 14 230 -2 70 1 0 0 0 1 0 0 0 1 0_stud_box.ldr
1 14 130 -2 70 1 0 0 0 1 0 0 0 1 0_stud_box.ldr
1 14 70 -2 70 1 0 0 0 1 0 0 0 1 0_stud_box.ldr
1 14 50 -2 70 1 0 0 0 1 0 0 0 1 0_stud_box.ldr
1 14 30 -2 70 1 0 0 0 1 0 0 0 1 0_stud_box.ldr
1 14 10 -2 70 1 0 0 0 1 0 0 0 1 0_stud_box.ldr
1 14 -10 -2 70 1 0 0 0 1 0 0 0 1 0_stud_box.ldr
1 14 -30 -2 70 1 0 0 0 1 0 0 0 1 0_stud_box.ldr
1 14 -170 -2 70 1 0 0 0 1 0 0 0 1 0_stud_box.ldr
1 14 -230 -2 70 1 0 0 0 1 0 0 0 1 0_stud_box.ldr
1 14 230 -2 50 1 0 0 0 1 0 0 0 1 0_stud_box.ldr
1 14 130 -2 50 1 0 0 0 1 0 0 0 1 0_stud_box.ldr
1 14 -170 -2 50 1 0 0 0 1 0 0 0 1 0_stud_box.ldr
1 14 -230 -2 50 1 0 0 0 1 0 0 0 1 0_stud_box.ldr
1 14 230 -2 30 1 0 0 0 1 0 0 0 1 0_stud_box.ldr
1 14 130 -2 30 1 0 0 0 1 0 0 0 1 0_stud_box.ldr
1 14 -170 -2 30 1 0 0 0 1 0 0 0 1 0_stud_box.ldr
1 14 -230 -2 30 1 0 0 0 1 0 0 0 1 0_stud_box.ldr
1 14 230 -2 10 1 0 0 0 1 0 0 0 1 0_stud_box.ldr
1 14 130 -2 10 1 0 0 0 1 0 0 0 1 0_stud_box.ldr
1 14 -10 -2 10 1 0 0 0 1 0 0 0 1 0_stud_box.ldr
1 14 -30 -2 10 1 0 0 0 1 0 0 0 1 0_stud_box.ldr
1 14 -50 -2 10 1 0 0 0 1 0 0 0 1 0_stud_box.ldr
1 14 -70 -2 10 1 0 0 0 1 0 0 0 1 0_stud_box.ldr
1 14 -90 -2 10 1 0 0 0 1 0 0 0 1 0_stud_box.ldr
1 14 -110 -2 10 1 0 0 0 1 0 0 0 1 0_stud_box.ldr
1 14 -130 -2 10 1 0 0 0 1 0 0 0 1 0_stud_box.ldr
1 14 -150 -2 10 1 0 0 0 1 0 0 0 1 0_stud_box.ldr
1 14 -170 -2 10 1 0 0 0 1 0 0 0 1 0_stud_box.ldr
1 14 -230 -2 10 1 0 0 0 1 0 0 0 1 0_stud_box.ldr
1 14 230 -2 -10 1 0 0 0 1 0 0 0 1 0_stud_box.ldr
1 14 130 -2 -10 1 0 0 0 1 0 0 0 1 0_stud_box.ldr
1 14 110 -2 -10 1 0 0 0 1 0 0 0 1 0_stud_box.ldr
1 14 90 -2 -10 1 0 0 0 1 0 0 0 1 0_stud_box.ldr
1 14 70 -2 -10 1 0 0 0 1 0 0 0 1 0_stud_box.ldr
1 14 50 -2 -10 1 0 0 0 1 0 0 0 1 0_stud_box.ldr
1 14 30 -2 -10 1 0 0 0 1 0 0 0 1 0_stud_box.ldr
1 14 10 -2 -10 1 0 0 0 1 0 0 0 1 0_stud_box.ldr
1 14 -10 -2 -10 1 0 0 0 1 0 0 0 1 0_stud_box.ldr
1 14 -30 -2 -10 1 0 0 0 1 0 0 0 1 0_stud_box.ldr
1 14 -50 -2 -10 1 0 0 0 1 0 0 0 1 0_stud_box.ldr
1 14 -70 -2 -10 1 0 0 0 1 0 0 0 1 0_stud_box.ldr
1 14 -90 -2 -10 1 0 0 0 1 0 0 0 1 0_stud_box.ldr
1 14 -110 -2 -10 1 0 0 0 1 0 0 0 1 0_stud_box.ldr
1 14 -130 -2 -10 1 0 0 0 1 0 0 0 1 0_stud_box.ldr
1 14 -150 -2 -10 1 0 0 0 1 0 0 0 1 0_stud_box.ldr
1 14 -170 -2 -10 1 0 0 0 1 0 0 0 1 0_stud_box.ldr
1 14 -230 -2 -10 1 0 0 0 1 0 0 0 1 0_stud_box.ldr
1 14 230 -2 -30 1 0 0 0 1 0 0 0 1 0_stud_box.ldr
1 14 -50 -2 -30 1 0 0 0 1 0 0 0 1 0_stud_box.ldr
1 14 -70 -2 -30 1 0 0 0 1 0 0 0 1 0_stud_box.ldr
1 14 -90 -2 -30 1 0 0 0 1 0 0 0 1 0_stud_box.ldr
1 14 -110 -2 -30 1 0 0 0 1 0 0 0 1 0_stud_box.ldr
1 14 -130 -2 -30 1 0 0 0 1 0 0 0 1 0_stud_box.ldr
1 14 -150 -2 -30 1 0 0 0 1 0 0 0 1 0_stud_box.ldr
1 14 -230 -2 -30 1 0 0 0 1 0 0 0 1 0_stud_box.ldr
1 14 230 -2 -50 1 0 0 0 1 0 0 0 1 0_stud_box.ldr
1 14 -50 -2 -50 1 0 0 0 1 0 0 0 1 0_stud_box.ldr
1 14 -70 -2 -50 1 0 0 0 1 0 0 0 1 0_stud_box.ldr
1 14 -90 -2 -50 1 0 0 0 1 0 0 0 1 0_stud_box.ldr
1 14 -110 -2 -50 1 0 0 0 1 0 0 0 1 0_stud_box.ldr
1 14 -130 -2 -50 1 0 0 0 1 0 0 0 1 0_stud_box.ldr
1 14 -150 -2 -50 1 0 0 0 1 0 0 0 1 0_stud_box.ldr
1 14 -230 -2 -50 1 0 0 0 1 0 0 0 1 0_stud_box.ldr
1 14 230 -2 -70 1 0 0 0 1 0 0 0 1 0_stud_box.ldr
1 14 -70 -2 -70 1 0 0 0 1 0 0 0 1 0_stud_box.ldr
1 14 -90 -2 -70 1 0 0 0 1 0 0 0 1 0_stud_box.ldr
1 14 -230 -2 -70 1 0 0 0 1 0 0 0 1 0_stud_box.ldr
1 14 230 -2 -90 1 0 0 0 1 0 0 0 1 0_stud_box.ldr
1 14 190 -2 -90 1 0 0 0 1 0 0 0 1 0_stud_box.ldr
1 14 170 -2 -90 1 0 0 0 1 0 0 0 1 0_stud_box.ldr
1 14 -70 -2 -90 1 0 0 0 1 0 0 0 1 0_stud_box.ldr
1 14 -90 -2 -90 1 0 0 0 1 0 0 0 1 0_stud_box.ldr
1 14 -170 -2 -90 1 0 0 0 1 0 0 0 1 0_stud_box.ldr
1 14 -190 -2 -90 1 0 0 0 1 0 0 0 1 0_stud_box.ldr
1 14 -230 -2 -90 1 0 0 0 1 0 0 0 1 0_stud_box.ldr
1 14 230 -2 -110 1 0 0 0 1 0 0 0 1 0_stud_box.ldr
1 14 190 -2 -110 1 0 0 0 1 0 0 0 1 0_stud_box.ldr
1 14 170 -2 -110 1 0 0 0 1 0 0 0 1 0_stud_box.ldr
1 14 -70 -2 -110 1 0 0 0 1 0 0 0 1 0_stud_box.ldr
1 14 -90 -2 -110 1 0 0 0 1 0 0 0 1 0_stud_box.ldr
1 14 -170 -2 -110 1 0 0 0 1 0 0 0 1 0_stud_box.ldr
1 14 -190 -2 -110 1 0 0 0 1 0 0 0 1 0_stud_box.ldr
1 14 -230 -2 -110 1 0 0 0 1 0 0 0 1 0_stud_box.ldr
1 14 230 -2 -130 1 0 0 0 1 0 0 0 1 0_stud_box.ldr
1 14 -70 -2 -130 1 0 0 0 1 0 0 0 1 0_stud_box.ldr
1 14 -90 -2 -130 1 0 0 0 1 0 0 0 1 0_stud_box.ldr
1 14 -230 -2 -130 1 0 0 0 1 0 0 0 1 0_stud_box.ldr
1 14 230 -2 -150 1 0 0 0 1 0 0 0 1 0_stud_box.ldr
1 14 210 -2 -150 1 0 0 0 1 0 0 0 1 0_stud_box.ldr
1 14 190 -2 -150 1 0 0 0 1 0 0 0 1 0_stud_box.ldr
1 14 170 -2 -150 1 0 0 0 1 0 0 0 1 0_stud_box.ldr
1 14 150 -2 -150 1 0 0 0 1 0 0 0 1 0_stud_box.ldr
1 14 130 -2 -150 1 0 0 0 1 0 0 0 1 0_stud_box.ldr
1 14 110 -2 -150 1 0 0 0 1 0 0 0 1 0_stud_box.ldr
1 14 90 -2 -150 1 0 0 0 1 0 0 0 1 0_stud_box.ldr
1 14 70 -2 -150 1 0 0 0 1 0 0 0 1 0_stud_box.ldr
1 14 50 -2 -150 1 0 0 0 1 0 0 0 1 0_stud_box.ldr
1 14 30 -2 -150 1 0 0 0 1 0 0 0 1 0_stud_box.ldr
1 14 10 -2 -150 1 0 0 0 1 0 0 0 1 0_stud_box.ldr
1 14 -10 -2 -150 1 0 0 0 1 0 0 0 1 0_stud_box.ldr
1 14 -30 -2 -150 1 0 0 0 1 0 0 0 1 0_stud_box.ldr
1 14 -50 -2 -150 1 0 0 0 1 0 0 0 1 0_stud_box.ldr
1 14 -70 -2 -150 1 0 0 0 1 0 0 0 1 0_stud_box.ldr
1 14 -90 -2 -150 1 0 0 0 1 0 0 0 1 0_stud_box.ldr
1 14 -110 -2 -150 1 0 0 0 1 0 0 0 1 0_stud_box.ldr
1 14 -130 -2 -150 1 0 0 0 1 0 0 0 1 0_stud_box.ldr
1 14 -150 -2 -150 1 0 0 0 1 0 0 0 1 0_stud_box.ldr
1 14 -170 -2 -150 1 0 0 0 1 0 0 0 1 0_stud_box.ldr
1 14 -190 -2 -150 1 0 0 0 1 0 0 0 1 0_stud_box.ldr
1 14 -210 -2 -150 1 0 0 0 1 0 0 0 1 0_stud_box.ldr
1 14 -230 -2 -150 1 0 0 0 1 0 0 0 1 0_stud_box.ldr
1 4 0 2 0 240 0 0 0 2 0 0 0 160 0_colision_box.ldr
1 2 0 0 0 240 0 0 0 4 0 0 0 160 0_bound_box.ldr