0 Name: 10040_enhanced
1 16 0 0 0 1 0 0 0 1 0 0 0 1 10040.dat
1 14 10 -2 -30 0 0 -1 0 1 0 1 0 0 0_stud_box.ldr
1 14 10 -2 -10 0 0 -1 0 1 0 1 0 0 0_stud_box.ldr
1 14 -10 -2 -30 0 0 -1 0 1 0 1 0 0 0_stud_box.ldr
1 14 -10 -2 -10 0 0 -1 0 1 0 1 0 0 0_stud_box.ldr
1 14 10 -2 -70 0 0 -1 0 1 0 1 0 0 0_stud_box.ldr
1 14 10 -2 -50 0 0 -1 0 1 0 1 0 0 0_stud_box.ldr
1 14 -10 -2 -70 0 0 -1 0 1 0 1 0 0 0_stud_box.ldr
1 14 -10 -2 -50 0 0 -1 0 1 0 1 0 0 0_stud_box.ldr
1 14 10 -2 10 0 0 -1 0 1 0 1 0 0 0_stud_box.ldr
1 14 10 -2 30 0 0 -1 0 1 0 1 0 0 0_stud_box.ldr
1 14 -10 -2 10 0 0 -1 0 1 0 1 0 0 0_stud_box.ldr
1 14 -10 -2 30 0 0 -1 0 1 0 1 0 0 0_stud_box.ldr
1 14 10 -2 50 0 0 -1 0 1 0 1 0 0 0_stud_box.ldr
1 14 10 -2 70 0 0 -1 0 1 0 1 0 0 0_stud_box.ldr
1 14 -10 -2 50 0 0 -1 0 1 0 1 0 0 0_stud_box.ldr
1 14 -10 -2 70 0 0 -1 0 1 0 1 0 0 0_stud_box.ldr
1 1 10 6 -30 1 0 0 0 -1 0 0 0 -1 0_rec_box.ldr
1 1 10 6 -10 1 0 0 0 -1 0 0 0 -1 0_rec_box.ldr
1 1 -10 6 -30 1 0 0 0 -1 0 0 0 -1 0_rec_box.ldr
1 1 -10 6 -10 1 0 0 0 -1 0 0 0 -1 0_rec_box.ldr
1 1 10 6 -70 1 0 0 0 -1 0 0 0 -1 0_rec_box.ldr
1 1 10 6 -50 1 0 0 0 -1 0 0 0 -1 0_rec_box.ldr
1 1 -10 6 -70 1 0 0 0 -1 0 0 0 -1 0_rec_box.ldr
1 1 -10 6 -50 1 0 0 0 -1 0 0 0 -1 0_rec_box.ldr