0 Name: 10_enhanced
1 16 0 0 0 1 0 0 0 1 0 0 0 1 10.dat
1 14 -230 -2 90 1 0 0 0 1 0 0 0 1 0_stud_box.ldr
1 14 -210 -2 90 1 0 0 0 1 0 0 0 1 0_stud_box.ldr
1 14 -230 -2 110 1 0 0 0 1 0 0 0 1 0_stud_box.ldr
1 14 -210 -2 110 1 0 0 0 1 0 0 0 1 0_stud_box.ldr
1 14 -230 -2 130 1 0 0 0 1 0 0 0 1 0_stud_box.ldr
1 14 -210 -2 130 1 0 0 0 1 0 0 0 1 0_stud_box.ldr
1 14 -230 -2 150 1 0 0 0 1 0 0 0 1 0_stud_box.ldr
1 14 -210 -2 150 1 0 0 0 1 0 0 0 1 0_stud_box.ldr
1 14 -190 -2 130 1 0 0 0 1 0 0 0 1 0_stud_box.ldr
1 14 -170 -2 130 1 0 0 0 1 0 0 0 1 0_stud_box.ldr
1 14 -190 -2 150 1 0 0 0 1 0 0 0 1 0_stud_box.ldr
1 14 -170 -2 150 1 0 0 0 1 0 0 0 1 0_stud_box.ldr
1 14 -190 -2 90 1 0 0 0 1 0 0 0 1 0_stud_box.ldr
1 14 -170 -2 90 1 0 0 0 1 0 0 0 1 0_stud_box.ldr
1 14 -190 -2 110 1 0 0 0 1 0 0 0 1 0_stud_box.ldr
1 14 -170 -2 110 1 0 0 0 1 0 0 0 1 0_stud_box.ldr
1 14 -230 -2 170 1 0 0 0 1 0 0 0 1 0_stud_box.ldr
1 14 -210 -2 170 1 0 0 0 1 0 0 0 1 0_stud_box.ldr
1 14 -230 -2 190 1 0 0 0 1 0 0 0 1 0_stud_box.ldr
1 14 -210 -2 190 1 0 0 0 1 0 0 0 1 0_stud_box.ldr
1 14 -230 -2 210 1 0 0 0 1 0 0 0 1 0_stud_box.ldr
1 14 -210 -2 210 1 0 0 0 1 0 0 0 1 0_stud_box.ldr
1 14 -230 -2 230 1 0 0 0 1 0 0 0 1 0_stud_box.ldr
1 14 -210 -2 230 1 0 0 0 1 0 0 0 1 0_stud_box.ldr
1 14 -190 -2 210 1 0 0 0 1 0 0 0 1 0_stud_box.ldr
1 14 -170 -2 210 1 0 0 0 1 0 0 0 1 0_stud_box.ldr
1 14 -190 -2 230 1 0 0 0 1 0 0 0 1 0_stud_box.ldr
1 14 -170 -2 230 1 0 0 0 1 0 0 0 1 0_stud_box.ldr
1 14 -190 -2 170 1 0 0 0 1 0 0 0 1 0_stud_box.ldr
1 14 -170 -2 170 1 0 0 0 1 0 0 0 1 0_stud_box.ldr
1 14 -190 -2 190 1 0 0 0 1 0 0 0 1 0_stud_box.ldr
1 14 -170 -2 190 1 0 0 0 1 0 0 0 1 0_stud_box.ldr
1 14 -150 -2 90 1 0 0 0 1 0 0 0 1 0_stud_box.ldr
1 14 -130 -2 90 1 0 0 0 1 0 0 0 1 0_stud_box.ldr
1 14 -150 -2 110 1 0 0 0 1 0 0 0 1 0_stud_box.ldr
1 14 -130 -2 110 1 0 0 0 1 0 0 0 1 0_stud_box.ldr
1 14 -150 -2 130 1 0 0 0 1 0 0 0 1 0_stud_box.ldr
1 14 -130 -2 130 1 0 0 0 1 0 0 0 1 0_stud_box.ldr
1 14 -150 -2 150 1 0 0 0 1 0 0 0 1 0_stud_box.ldr
1 14 -130 -2 150 1 0 0 0 1 0 0 0 1 0_stud_box.ldr
1 14 -110 -2 130 1 0 0 0 1 0 0 0 1 0_stud_box.ldr
1 14 -90 -2 130 1 0 0 0 1 0 0 0 1 0_stud_box.ldr
1 14 -110 -2 150 1 0 0 0 1 0 0 0 1 0_stud_box.ldr
1 14 -90 -2 150 1 0 0 0 1 0 0 0 1 0_stud_box.ldr
1 14 -110 -2 90 1 0 0 0 1 0 0 0 1 0_stud_box.ldr
1 14 -90 -2 90 1 0 0 0 1 0 0 0 1 0_stud_box.ldr
1 14 -110 -2 110 1 0 0 0 1 0 0 0 1 0_stud_box.ldr
1 14 -90 -2 110 1 0 0 0 1 0 0 0 1 0_stud_box.ldr
1 14 -150 -2 170 1 0 0 0 1 0 0 0 1 0_stud_box.ldr
1 14 -130 -2 170 1 0 0 0 1 0 0 0 1 0_stud_box.ldr
1 14 -150 -2 190 1 0 0 0 1 0 0 0 1 0_stud_box.ldr
1 14 -130 -2 190 1 0 0 0 1 0 0 0 1 0_stud_box.ldr
1 14 -150 -2 210 1 0 0 0 1 0 0 0 1 0_stud_box.ldr
1 14 -130 -2 210 1 0 0 0 1 0 0 0 1 0_stud_box.ldr
1 14 -150 -2 230 1 0 0 0 1 0 0 0 1 0_stud_box.ldr
1 14 -130 -2 230 1 0 0 0 1 0 0 0 1 0_stud_box.ldr
1 14 -110 -2 210 1 0 0 0 1 0 0 0 1 0_stud_box.ldr
1 14 -90 -2 210 1 0 0 0 1 0 0 0 1 0_stud_box.ldr
1 14 -110 -2 230 1 0 0 0 1 0 0 0 1 0_stud_box.ldr
1 14 -90 -2 230 1 0 0 0 1 0 0 0 1 0_stud_box.ldr
1 14 -110 -2 170 1 0 0 0 1 0 0 0 1 0_stud_box.ldr
1 14 -90 -2 170 1 0 0 0 1 0 0 0 1 0_stud_box.ldr
1 14 -110 -2 190 1 0 0 0 1 0 0 0 1 0_stud_box.ldr
1 14 -90 -2 190 1 0 0 0 1 0 0 0 1 0_stud_box.ldr
1 14 -70 -2 90 1 0 0 0 1 0 0 0 1 0_stud_box.ldr
1 14 -50 -2 90 1 0 0 0 1 0 0 0 1 0_stud_box.ldr
1 14 -70 -2 110 1 0 0 0 1 0 0 0 1 0_stud_box.ldr
1 14 -50 -2 110 1 0 0 0 1 0 0 0 1 0_stud_box.ldr
1 14 -70 -2 130 1 0 0 0 1 0 0 0 1 0_stud_box.ldr
1 14 -50 -2 130 1 0 0 0 1 0 0 0 1 0_stud_box.ldr
1 14 -70 -2 150 1 0 0 0 1 0 0 0 1 0_stud_box.ldr
1 14 -50 -2 150 1 0 0 0 1 0 0 0 1 0_stud_box.ldr
1 14 -30 -2 130 1 0 0 0 1 0 0 0 1 0_stud_box.ldr
1 14 -10 -2 130 1 0 0 0 1 0 0 0 1 0_stud_box.ldr
1 14 -30 -2 150 1 0 0 0 1 0 0 0 1 0_stud_box.ldr
1 14 -10 -2 150 1 0 0 0 1 0 0 0 1 0_stud_box.ldr
1 14 -30 -2 90 1 0 0 0 1 0 0 0 1 0_stud_box.ldr
1 14 -10 -2 90 1 0 0 0 1 0 0 0 1 0_stud_box.ldr
1 14 -30 -2 110 1 0 0 0 1 0 0 0 1 0_stud_box.ldr
1 14 -10 -2 110 1 0 0 0 1 0 0 0 1 0_stud_box.ldr
1 14 -70 -2 170 1 0 0 0 1 0 0 0 1 0_stud_box.ldr
1 14 -50 -2 170 1 0 0 0 1 0 0 0 1 0_stud_box.ldr
1 14 -70 -2 190 1 0 0 0 1 0 0 0 1 0_stud_box.ldr
1 14 -50 -2 190 1 0 0 0 1 0 0 0 1 0_stud_box.ldr
1 14 -70 -2 210 1 0 0 0 1 0 0 0 1 0_stud_box.ldr
1 14 -50 -2 210 1 0 0 0 1 0 0 0 1 0_stud_box.ldr
1 14 -70 -2 230 1 0 0 0 1 0 0 0 1 0_stud_box.ldr
1 14 -50 -2 230 1 0 0 0 1 0 0 0 1 0_stud_box.ldr
1 14 -30 -2 210 1 0 0 0 1 0 0 0 1 0_stud_box.ldr
1 14 -10 -2 210 1 0 0 0 1 0 0 0 1 0_stud_box.ldr
1 14 -30 -2 230 1 0 0 0 1 0 0 0 1 0_stud_box.ldr
1 14 -10 -2 230 1 0 0 0 1 0 0 0 1 0_stud_box.ldr
1 14 -30 -2 170 1 0 0 0 1 0 0 0 1 0_stud_box.ldr
1 14 -10 -2 170 1 0 0 0 1 0 0 0 1 0_stud_box.ldr
1 14 -30 -2 190 1 0 0 0 1 0 0 0 1 0_stud_box.ldr
1 14 -10 -2 190 1 0 0 0 1 0 0 0 1 0_stud_box.ldr
1 14 10 -2 90 1 0 0 0 1 0 0 0 1 0_stud_box.ldr
1 14 30 -2 90 1 0 0 0 1 0 0 0 1 0_stud_box.ldr
1 14 10 -2 110 1 0 0 0 1 0 0 0 1 0_stud_box.ldr
1 14 30 -2 110 1 0 0 0 1 0 0 0 1 0_stud_box.ldr
1 14 10 -2 130 1 0 0 0 1 0 0 0 1 0_stud_box.ldr
1 14 30 -2 130 1 0 0 0 1 0 0 0 1 0_stud_box.ldr
1 14 10 -2 150 1 0 0 0 1 0 0 0 1 0_stud_box.ldr
1 14 30 -2 150 1 0 0 0 1 0 0 0 1 0_stud_box.ldr
1 14 50 -2 130 1 0 0 0 1 0 0 0 1 0_stud_box.ldr
1 14 70 -2 130 1 0 0 0 1 0 0 0 1 0_stud_box.ldr
1 14 50 -2 150 1 0 0 0 1 0 0 0 1 0_stud_box.ldr
1 14 70 -2 150 1 0 0 0 1 0 0 0 1 0_stud_box.ldr
1 14 50 -2 90 1 0 0 0 1 0 0 0 1 0_stud_box.ldr
1 14 70 -2 90 1 0 0 0 1 0 0 0 1 0_stud_box.ldr
1 14 50 -2 110 1 0 0 0 1 0 0 0 1 0_stud_box.ldr
1 14 70 -2 110 1 0 0 0 1 0 0 0 1 0_stud_box.ldr
1 14 10 -2 170 1 0 0 0 1 0 0 0 1 0_stud_box.ldr
1 14 30 -2 170 1 0 0 0 1 0 0 0 1 0_stud_box.ldr
1 14 10 -2 190 1 0 0 0 1 0 0 0 1 0_stud_box.ldr
1 14 30 -2 190 1 0 0 0 1 0 0 0 1 0_stud_box.ldr
1 14 10 -2 210 1 0 0 0 1 0 0 0 1 0_stud_box.ldr
1 14 30 -2 210 1 0 0 0 1 0 0 0 1 0_stud_box.ldr
1 14 10 -2 230 1 0 0 0 1 0 0 0 1 0_stud_box.ldr
1 14 30 -2 230 1 0 0 0 1 0 0 0 1 0_stud_box.ldr
1 14 50 -2 210 1 0 0 0 1 0 0 0 1 0_stud_box.ldr
1 14 70 -2 210 1 0 0 0 1 0 0 0 1 0_stud_box.ldr
1 14 50 -2 230 1 0 0 0 1 0 0 0 1 0_stud_box.ldr
1 14 70 -2 230 1 0 0 0 1 0 0 0 1 0_stud_box.ldr
1 14 50 -2 170 1 0 0 0 1 0 0 0 1 0_stud_box.ldr
1 14 70 -2 170 1 0 0 0 1 0 0 0 1 0_stud_box.ldr
1 14 50 -2 190 1 0 0 0 1 0 0 0 1 0_stud_box.ldr
1 14 70 -2 190 1 0 0 0 1 0 0 0 1 0_stud_box.ldr
1 14 -230 -2 -70 1 0 0 0 1 0 0 0 1 0_stud_box.ldr
1 14 -210 -2 -70 1 0 0 0 1 0 0 0 1 0_stud_box.ldr
1 14 -230 -2 -50 1 0 0 0 1 0 0 0 1 0_stud_box.ldr
1 14 -210 -2 -50 1 0 0 0 1 0 0 0 1 0_stud_box.ldr
1 14 -230 -2 -30 1 0 0 0 1 0 0 0 1 0_stud_box.ldr
1 14 -210 -2 -30 1 0 0 0 1 0 0 0 1 0_stud_box.ldr
1 14 -230 -2 -10 1 0 0 0 1 0 0 0 1 0_stud_box.ldr
1 14 -210 -2 -10 1 0 0 0 1 0 0 0 1 0_stud_box.ldr
1 14 -190 -2 -30 1 0 0 0 1 0 0 0 1 0_stud_box.ldr
1 14 -170 -2 -30 1 0 0 0 1 0 0 0 1 0_stud_box.ldr
1 14 -190 -2 -10 1 0 0 0 1 0 0 0 1 0_stud_box.ldr
1 14 -170 -2 -10 1 0 0 0 1 0 0 0 1 0_stud_box.ldr
1 14 -190 -2 -70 1 0 0 0 1 0 0 0 1 0_stud_box.ldr
1 14 -170 -2 -70 1 0 0 0 1 0 0 0 1 0_stud_box.ldr
1 14 -190 -2 -50 1 0 0 0 1 0 0 0 1 0_stud_box.ldr
1 14 -170 -2 -50 1 0 0 0 1 0 0 0 1 0_stud_box.ldr
1 14 -230 -2 10 1 0 0 0 1 0 0 0 1 0_stud_box.ldr
1 14 -210 -2 10 1 0 0 0 1 0 0 0 1 0_stud_box.ldr
1 14 -230 -2 30 1 0 0 0 1 0 0 0 1 0_stud_box.ldr
1 14 -210 -2 30 1 0 0 0 1 0 0 0 1 0_stud_box.ldr
1 14 -230 -2 50 1 0 0 0 1 0 0 0 1 0_stud_box.ldr
1 14 -210 -2 50 1 0 0 0 1 0 0 0 1 0_stud_box.ldr
1 14 -230 -2 70 1 0 0 0 1 0 0 0 1 0_stud_box.ldr
1 14 -210 -2 70 1 0 0 0 1 0 0 0 1 0_stud_box.ldr
1 14 -190 -2 50 1 0 0 0 1 0 0 0 1 0_stud_box.ldr
1 14 -170 -2 50 1 0 0 0 1 0 0 0 1 0_stud_box.ldr
1 14 -190 -2 70 1 0 0 0 1 0 0 0 1 0_stud_box.ldr
1 14 -170 -2 70 1 0 0 0 1 0 0 0 1 0_stud_box.ldr
1 14 -190 -2 10 1 0 0 0 1 0 0 0 1 0_stud_box.ldr
1 14 -170 -2 10 1 0 0 0 1 0 0 0 1 0_stud_box.ldr
1 14 -190 -2 30 1 0 0 0 1 0 0 0 1 0_stud_box.ldr
1 14 -170 -2 30 1 0 0 0 1 0 0 0 1 0_stud_box.ldr
1 14 -150 -2 -70 1 0 0 0 1 0 0 0 1 0_stud_box.ldr
1 14 -130 -2 -70 1 0 0 0 1 0 0 0 1 0_stud_box.ldr
1 14 -150 -2 -50 1 0 0 0 1 0 0 0 1 0_stud_box.ldr
1 14 -130 -2 -50 1 0 0 0 1 0 0 0 1 0_stud_box.ldr
1 14 -150 -2 -30 1 0 0 0 1 0 0 0 1 0_stud_box.ldr
1 14 -130 -2 -30 1 0 0 0 1 0 0 0 1 0_stud_box.ldr
1 14 -150 -2 -10 1 0 0 0 1 0 0 0 1 0_stud_box.ldr
1 14 -130 -2 -10 1 0 0 0 1 0 0 0 1 0_stud_box.ldr
1 14 -110 -2 -30 1 0 0 0 1 0 0 0 1 0_stud_box.ldr
1 14 -90 -2 -30 1 0 0 0 1 0 0 0 1 0_stud_box.ldr
1 14 -110 -2 -10 1 0 0 0 1 0 0 0 1 0_stud_box.ldr
1 14 -90 -2 -10 1 0 0 0 1 0 0 0 1 0_stud_box.ldr
1 14 -110 -2 -70 1 0 0 0 1 0 0 0 1 0_stud_box.ldr
1 14 -90 -2 -70 1 0 0 0 1 0 0 0 1 0_stud_box.ldr
1 14 -110 -2 -50 1 0 0 0 1 0 0 0 1 0_stud_box.ldr
1 14 -90 -2 -50 1 0 0 0 1 0 0 0 1 0_stud_box.ldr
1 14 -150 -2 10 1 0 0 0 1 0 0 0 1 0_stud_box.ldr
1 14 -130 -2 10 1 0 0 0 1 0 0 0 1 0_stud_box.ldr
1 14 -150 -2 30 1 0 0 0 1 0 0 0 1 0_stud_box.ldr
1 14 -130 -2 30 1 0 0 0 1 0 0 0 1 0_stud_box.ldr
1 14 -150 -2 50 1 0 0 0 1 0 0 0 1 0_stud_box.ldr
1 14 -130 -2 50 1 0 0 0 1 0 0 0 1 0_stud_box.ldr
1 14 -150 -2 70 1 0 0 0 1 0 0 0 1 0_stud_box.ldr
1 14 -130 -2 70 1 0 0 0 1 0 0 0 1 0_stud_box.ldr
1 14 -110 -2 50 1 0 0 0 1 0 0 0 1 0_stud_box.ldr
1 14 -90 -2 50 1 0 0 0 1 0 0 0 1 0_stud_box.ldr
1 14 -110 -2 70 1 0 0 0 1 0 0 0 1 0_stud_box.ldr
1 14 -90 -2 70 1 0 0 0 1 0 0 0 1 0_stud_box.ldr
1 14 -110 -2 10 1 0 0 0 1 0 0 0 1 0_stud_box.ldr
1 14 -90 -2 10 1 0 0 0 1 0 0 0 1 0_stud_box.ldr
1 14 -110 -2 30 1 0 0 0 1 0 0 0 1 0_stud_box.ldr
1 14 -90 -2 30 1 0 0 0 1 0 0 0 1 0_stud_box.ldr
1 14 -70 -2 -70 1 0 0 0 1 0 0 0 1 0_stud_box.ldr
1 14 -50 -2 -70 1 0 0 0 1 0 0 0 1 0_stud_box.ldr
1 14 -70 -2 -50 1 0 0 0 1 0 0 0 1 0_stud_box.ldr
1 14 -50 -2 -50 1 0 0 0 1 0 0 0 1 0_stud_box.ldr
1 14 -70 -2 -30 1 0 0 0 1 0 0 0 1 0_stud_box.ldr
1 14 -50 -2 -30 1 0 0 0 1 0 0 0 1 0_stud_box.ldr
1 14 -70 -2 -10 1 0 0 0 1 0 0 0 1 0_stud_box.ldr
1 14 -50 -2 -10 1 0 0 0 1 0 0 0 1 0_stud_box.ldr
1 14 -30 -2 -30 1 0 0 0 1 0 0 0 1 0_stud_box.ldr
1 14 -10 -2 -30 1 0 0 0 1 0 0 0 1 0_stud_box.ldr
1 14 -30 -2 -10 1 0 0 0 1 0 0 0 1 0_stud_box.ldr
1 14 -10 -2 -10 1 0 0 0 1 0 0 0 1 0_stud_box.ldr
1 14 -30 -2 -70 1 0 0 0 1 0 0 0 1 0_stud_box.ldr
1 14 -10 -2 -70 1 0 0 0 1 0 0 0 1 0_stud_box.ldr
1 14 -30 -2 -50 1 0 0 0 1 0 0 0 1 0_stud_box.ldr
1 14 -10 -2 -50 1 0 0 0 1 0 0 0 1 0_stud_box.ldr
1 14 -70 -2 10 1 0 0 0 1 0 0 0 1 0_stud_box.ldr
1 14 -50 -2 10 1 0 0 0 1 0 0 0 1 0_stud_box.ldr
1 14 -70 -2 30 1 0 0 0 1 0 0 0 1 0_stud_box.ldr
1 14 -50 -2 30 1 0 0 0 1 0 0 0 1 0_stud_box.ldr
1 14 -70 -2 50 1 0 0 0 1 0 0 0 1 0_stud_box.ldr
1 14 -50 -2 50 1 0 0 0 1 0 0 0 1 0_stud_box.ldr
1 14 -70 -2 70 1 0 0 0 1 0 0 0 1 0_stud_box.ldr
1 14 -50 -2 70 1 0 0 0 1 0 0 0 1 0_stud_box.ldr
1 14 -30 -2 50 1 0 0 0 1 0 0 0 1 0_stud_box.ldr
1 14 -10 -2 50 1 0 0 0 1 0 0 0 1 0_stud_box.ldr
1 14 -30 -2 70 1 0 0 0 1 0 0 0 1 0_stud_box.ldr
1 14 -10 -2 70 1 0 0 0 1 0 0 0 1 0_stud_box.ldr
1 14 -30 -2 10 1 0 0 0 1 0 0 0 1 0_stud_box.ldr
1 14 -10 -2 10 1 0 0 0 1 0 0 0 1 0_stud_box.ldr
1 14 -30 -2 30 1 0 0 0 1 0 0 0 1 0_stud_box.ldr
1 14 -10 -2 30 1 0 0 0 1 0 0 0 1 0_stud_box.ldr
1 14 10 -2 -70 1 0 0 0 1 0 0 0 1 0_stud_box.ldr
1 14 30 -2 -70 1 0 0 0 1 0 0 0 1 0_stud_box.ldr
1 14 10 -2 -50 1 0 0 0 1 0 0 0 1 0_stud_box.ldr
1 14 30 -2 -50 1 0 0 0 1 0 0 0 1 0_stud_box.ldr
1 14 10 -2 -30 1 0 0 0 1 0 0 0 1 0_stud_box.ldr
1 14 30 -2 -30 1 0 0 0 1 0 0 0 1 0_stud_box.ldr
1 14 10 -2 -10 1 0 0 0 1 0 0 0 1 0_stud_box.ldr
1 14 30 -2 -10 1 0 0 0 1 0 0 0 1 0_stud_box.ldr
1 14 50 -2 -30 1 0 0 0 1 0 0 0 1 0_stud_box.ldr
1 14 70 -2 -30 1 0 0 0 1 0 0 0 1 0_stud_box.ldr
1 14 50 -2 -10 1 0 0 0 1 0 0 0 1 0_stud_box.ldr
1 14 70 -2 -10 1 0 0 0 1 0 0 0 1 0_stud_box.ldr
1 14 50 -2 -70 1 0 0 0 1 0 0 0 1 0_stud_box.ldr
1 14 70 -2 -70 1 0 0 0 1 0 0 0 1 0_stud_box.ldr
1 14 50 -2 -50 1 0 0 0 1 0 0 0 1 0_stud_box.ldr
1 14 70 -2 -50 1 0 0 0 1 0 0 0 1 0_stud_box.ldr
1 14 10 -2 10 1 0 0 0 1 0 0 0 1 0_stud_box.ldr
1 14 30 -2 10 1 0 0 0 1 0 0 0 1 0_stud_box.ldr
1 14 10 -2 30 1 0 0 0 1 0 0 0 1 0_stud_box.ldr
1 14 30 -2 30 1 0 0 0 1 0 0 0 1 0_stud_box.ldr
1 14 10 -2 50 1 0 0 0 1 0 0 0 1 0_stud_box.ldr
1 14 30 -2 50 1 0 0 0 1 0 0 0 1 0_stud_box.ldr
1 14 10 -2 70 1 0 0 0 1 0 0 0 1 0_stud_box.ldr
1 14 30 -2 70 1 0 0 0 1 0 0 0 1 0_stud_box.ldr
1 14 50 -2 50 1 0 0 0 1 0 0 0 1 0_stud_box.ldr
1 14 70 -2 50 1 0 0 0 1 0 0 0 1 0_stud_box.ldr
1 14 50 -2 70 1 0 0 0 1 0 0 0 1 0_stud_box.ldr
1 14 70 -2 70 1 0 0 0 1 0 0 0 1 0_stud_box.ldr
1 14 50 -2 10 1 0 0 0 1 0 0 0 1 0_stud_box.ldr
1 14 70 -2 10 1 0 0 0 1 0 0 0 1 0_stud_box.ldr
1 14 50 -2 30 1 0 0 0 1 0 0 0 1 0_stud_box.ldr
1 14 70 -2 30 1 0 0 0 1 0 0 0 1 0_stud_box.ldr
1 14 -230 -2 -230 1 0 0 0 1 0 0 0 1 0_stud_box.ldr
1 14 -210 -2 -230 1 0 0 0 1 0 0 0 1 0_stud_box.ldr
1 14 -230 -2 -210 1 0 0 0 1 0 0 0 1 0_stud_box.ldr
1 14 -210 -2 -210 1 0 0 0 1 0 0 0 1 0_stud_box.ldr
1 14 -230 -2 -190 1 0 0 0 1 0 0 0 1 0_stud_box.ldr
1 14 -210 -2 -190 1 0 0 0 1 0 0 0 1 0_stud_box.ldr
1 14 -230 -2 -170 1 0 0 0 1 0 0 0 1 0_stud_box.ldr
1 14 -210 -2 -170 1 0 0 0 1 0 0 0 1 0_stud_box.ldr
1 14 -190 -2 -190 1 0 0 0 1 0 0 0 1 0_stud_box.ldr
1 14 -170 -2 -190 1 0 0 0 1 0 0 0 1 0_stud_box.ldr
1 14 -190 -2 -170 1 0 0 0 1 0 0 0 1 0_stud_box.ldr
1 14 -170 -2 -170 1 0 0 0 1 0 0 0 1 0_stud_box.ldr
1 14 -190 -2 -230 1 0 0 0 1 0 0 0 1 0_stud_box.ldr
1 14 -170 -2 -230 1 0 0 0 1 0 0 0 1 0_stud_box.ldr
1 14 -190 -2 -210 1 0 0 0 1 0 0 0 1 0_stud_box.ldr
1 14 -170 -2 -210 1 0 0 0 1 0 0 0 1 0_stud_box.ldr
1 14 -230 -2 -150 1 0 0 0 1 0 0 0 1 0_stud_box.ldr
1 14 -210 -2 -150 1 0 0 0 1 0 0 0 1 0_stud_box.ldr
1 14 -230 -2 -130 1 0 0 0 1 0 0 0 1 0_stud_box.ldr
1 14 -210 -2 -130 1 0 0 0 1 0 0 0 1 0_stud_box.ldr
1 14 -230 -2 -110 1 0 0 0 1 0 0 0 1 0_stud_box.ldr
1 14 -210 -2 -110 1 0 0 0 1 0 0 0 1 0_stud_box.ldr
1 14 -230 -2 -90 1 0 0 0 1 0 0 0 1 0_stud_box.ldr
1 14 -210 -2 -90 1 0 0 0 1 0 0 0 1 0_stud_box.ldr
1 14 -190 -2 -110 1 0 0 0 1 0 0 0 1 0_stud_box.ldr
1 14 -170 -2 -110 1 0 0 0 1 0 0 0 1 0_stud_box.ldr
1 14 -190 -2 -90 1 0 0 0 1 0 0 0 1 0_stud_box.ldr
1 14 -170 -2 -90 1 0 0 0 1 0 0 0 1 0_stud_box.ldr
1 14 -190 -2 -150 1 0 0 0 1 0 0 0 1 0_stud_box.ldr
1 14 -170 -2 -150 1 0 0 0 1 0 0 0 1 0_stud_box.ldr
1 14 -190 -2 -130 1 0 0 0 1 0 0 0 1 0_stud_box.ldr
1 14 -170 -2 -130 1 0 0 0 1 0 0 0 1 0_stud_box.ldr
1 14 -150 -2 -230 1 0 0 0 1 0 0 0 1 0_stud_box.ldr
1 14 -130 -2 -230 1 0 0 0 1 0 0 0 1 0_stud_box.ldr
1 14 -150 -2 -210 1 0 0 0 1 0 0 0 1 0_stud_box.ldr
1 14 -130 -2 -210 1 0 0 0 1 0 0 0 1 0_stud_box.ldr
1 14 -150 -2 -190 1 0 0 0 1 0 0 0 1 0_stud_box.ldr
1 14 -130 -2 -190 1 0 0 0 1 0 0 0 1 0_stud_box.ldr
1 14 -150 -2 -170 1 0 0 0 1 0 0 0 1 0_stud_box.ldr
1 14 -130 -2 -170 1 0 0 0 1 0 0 0 1 0_stud_box.ldr
1 14 -110 -2 -190 1 0 0 0 1 0 0 0 1 0_stud_box.ldr
1 14 -90 -2 -190 1 0 0 0 1 0 0 0 1 0_stud_box.ldr
1 14 -110 -2 -170 1 0 0 0 1 0 0 0 1 0_stud_box.ldr
1 14 -90 -2 -170 1 0 0 0 1 0 0 0 1 0_stud_box.ldr
1 14 -110 -2 -230 1 0 0 0 1 0 0 0 1 0_stud_box.ldr
1 14 -90 -2 -230 1 0 0 0 1 0 0 0 1 0_stud_box.ldr
1 14 -110 -2 -210 1 0 0 0 1 0 0 0 1 0_stud_box.ldr
1 14 -90 -2 -210 1 0 0 0 1 0 0 0 1 0_stud_box.ldr
1 14 -150 -2 -150 1 0 0 0 1 0 0 0 1 0_stud_box.ldr
1 14 -130 -2 -150 1 0 0 0 1 0 0 0 1 0_stud_box.ldr
1 14 -150 -2 -130 1 0 0 0 1 0 0 0 1 0_stud_box.ldr
1 14 -130 -2 -130 1 0 0 0 1 0 0 0 1 0_stud_box.ldr
1 14 -150 -2 -110 1 0 0 0 1 0 0 0 1 0_stud_box.ldr
1 14 -130 -2 -110 1 0 0 0 1 0 0 0 1 0_stud_box.ldr
1 14 -150 -2 -90 1 0 0 0 1 0 0 0 1 0_stud_box.ldr
1 14 -130 -2 -90 1 0 0 0 1 0 0 0 1 0_stud_box.ldr
1 14 -110 -2 -110 1 0 0 0 1 0 0 0 1 0_stud_box.ldr
1 14 -90 -2 -110 1 0 0 0 1 0 0 0 1 0_stud_box.ldr
1 14 -110 -2 -90 1 0 0 0 1 0 0 0 1 0_stud_box.ldr
1 14 -90 -2 -90 1 0 0 0 1 0 0 0 1 0_stud_box.ldr
1 14 -110 -2 -150 1 0 0 0 1 0 0 0 1 0_stud_box.ldr
1 14 -90 -2 -150 1 0 0 0 1 0 0 0 1 0_stud_box.ldr
1 14 -110 -2 -130 1 0 0 0 1 0 0 0 1 0_stud_box.ldr
1 14 -90 -2 -130 1 0 0 0 1 0 0 0 1 0_stud_box.ldr
1 14 -70 -2 -230 1 0 0 0 1 0 0 0 1 0_stud_box.ldr
1 14 -50 -2 -230 1 0 0 0 1 0 0 0 1 0_stud_box.ldr
1 14 -70 -2 -210 1 0 0 0 1 0 0 0 1 0_stud_box.ldr
1 14 -50 -2 -210 1 0 0 0 1 0 0 0 1 0_stud_box.ldr
1 14 -70 -2 -190 1 0 0 0 1 0 0 0 1 0_stud_box.ldr
1 14 -50 -2 -190 1 0 0 0 1 0 0 0 1 0_stud_box.ldr
1 14 -70 -2 -170 1 0 0 0 1 0 0 0 1 0_stud_box.ldr
1 14 -50 -2 -170 1 0 0 0 1 0 0 0 1 0_stud_box.ldr
1 14 -30 -2 -190 1 0 0 0 1 0 0 0 1 0_stud_box.ldr
1 14 -10 -2 -190 1 0 0 0 1 0 0 0 1 0_stud_box.ldr
1 14 -30 -2 -170 1 0 0 0 1 0 0 0 1 0_stud_box.ldr
1 14 -10 -2 -170 1 0 0 0 1 0 0 0 1 0_stud_box.ldr
1 14 -30 -2 -230 1 0 0 0 1 0 0 0 1 0_stud_box.ldr
1 14 -10 -2 -230 1 0 0 0 1 0 0 0 1 0_stud_box.ldr
1 14 -30 -2 -210 1 0 0 0 1 0 0 0 1 0_stud_box.ldr
1 14 -10 -2 -210 1 0 0 0 1 0 0 0 1 0_stud_box.ldr
1 14 -70 -2 -150 1 0 0 0 1 0 0 0 1 0_stud_box.ldr
1 14 -50 -2 -150 1 0 0 0 1 0 0 0 1 0_stud_box.ldr
1 14 -70 -2 -130 1 0 0 0 1 0 0 0 1 0_stud_box.ldr
1 14 -50 -2 -130 1 0 0 0 1 0 0 0 1 0_stud_box.ldr
1 14 -70 -2 -110 1 0 0 0 1 0 0 0 1 0_stud_box.ldr
1 14 -50 -2 -110 1 0 0 0 1 0 0 0 1 0_stud_box.ldr
1 14 -70 -2 -90 1 0 0 0 1 0 0 0 1 0_stud_box.ldr
1 14 -50 -2 -90 1 0 0 0 1 0 0 0 1 0_stud_box.ldr
1 14 -30 -2 -110 1 0 0 0 1 0 0 0 1 0_stud_box.ldr
1 14 -10 -2 -110 1 0 0 0 1 0 0 0 1 0_stud_box.ldr
1 14 -30 -2 -90 1 0 0 0 1 0 0 0 1 0_stud_box.ldr
1 14 -10 -2 -90 1 0 0 0 1 0 0 0 1 0_stud_box.ldr
1 14 -30 -2 -150 1 0 0 0 1 0 0 0 1 0_stud_box.ldr
1 14 -10 -2 -150 1 0 0 0 1 0 0 0 1 0_stud_box.ldr
1 14 -30 -2 -130 1 0 0 0 1 0 0 0 1 0_stud_box.ldr
1 14 -10 -2 -130 1 0 0 0 1 0 0 0 1 0_stud_box.ldr
1 14 10 -2 -230 1 0 0 0 1 0 0 0 1 0_stud_box.ldr
1 14 30 -2 -230 1 0 0 0 1 0 0 0 1 0_stud_box.ldr
1 14 10 -2 -210 1 0 0 0 1 0 0 0 1 0_stud_box.ldr
1 14 30 -2 -210 1 0 0 0 1 0 0 0 1 0_stud_box.ldr
1 14 10 -2 -190 1 0 0 0 1 0 0 0 1 0_stud_box.ldr
1 14 30 -2 -190 1 0 0 0 1 0 0 0 1 0_stud_box.ldr
1 14 10 -2 -170 1 0 0 0 1 0 0 0 1 0_stud_box.ldr
1 14 30 -2 -170 1 0 0 0 1 0 0 0 1 0_stud_box.ldr
1 14 50 -2 -190 1 0 0 0 1 0 0 0 1 0_stud_box.ldr
1 14 70 -2 -190 1 0 0 0 1 0 0 0 1 0_stud_box.ldr
1 14 50 -2 -170 1 0 0 0 1 0 0 0 1 0_stud_box.ldr
1 14 70 -2 -170 1 0 0 0 1 0 0 0 1 0_stud_box.ldr
1 14 50 -2 -230 1 0 0 0 1 0 0 0 1 0_stud_box.ldr
1 14 70 -2 -230 1 0 0 0 1 0 0 0 1 0_stud_box.ldr
1 14 50 -2 -210 1 0 0 0 1 0 0 0 1 0_stud_box.ldr
1 14 70 -2 -210 1 0 0 0 1 0 0 0 1 0_stud_box.ldr
1 14 10 -2 -150 1 0 0 0 1 0 0 0 1 0_stud_box.ldr
1 14 30 -2 -150 1 0 0 0 1 0 0 0 1 0_stud_box.ldr
1 14 10 -2 -130 1 0 0 0 1 0 0 0 1 0_stud_box.ldr
1 14 30 -2 -130 1 0 0 0 1 0 0 0 1 0_stud_box.ldr
1 14 10 -2 -110 1 0 0 0 1 0 0 0 1 0_stud_box.ldr
1 14 30 -2 -110 1 0 0 0 1 0 0 0 1 0_stud_box.ldr
1 14 10 -2 -90 1 0 0 0 1 0 0 0 1 0_stud_box.ldr
1 14 30 -2 -90 1 0 0 0 1 0 0 0 1 0_stud_box.ldr
1 14 50 -2 -110 1 0 0 0 1 0 0 0 1 0_stud_box.ldr
1 14 70 -2 -110 1 0 0 0 1 0 0 0 1 0_stud_box.ldr
1 14 50 -2 -90 1 0 0 0 1 0 0 0 1 0_stud_box.ldr
1 14 70 -2 -90 1 0 0 0 1 0 0 0 1 0_stud_box.ldr
1 14 50 -2 -150 1 0 0 0 1 0 0 0 1 0_stud_box.ldr
1 14 70 -2 -150 1 0 0 0 1 0 0 0 1 0_stud_box.ldr
1 14 50 -2 -130 1 0 0 0 1 0 0 0 1 0_stud_box.ldr
1 14 70 -2 -130 1 0 0 0 1 0 0 0 1 0_stud_box.ldr
1 14 90 -2 90 1 0 0 0 1 0 0 0 1 0_stud_box.ldr
1 14 110 -2 90 1 0 0 0 1 0 0 0 1 0_stud_box.ldr
1 14 90 -2 110 1 0 0 0 1 0 0 0 1 0_stud_box.ldr
1 14 110 -2 110 1 0 0 0 1 0 0 0 1 0_stud_box.ldr
1 14 90 -2 130 1 0 0 0 1 0 0 0 1 0_stud_box.ldr
1 14 110 -2 130 1 0 0 0 1 0 0 0 1 0_stud_box.ldr
1 14 90 -2 150 1 0 0 0 1 0 0 0 1 0_stud_box.ldr
1 14 110 -2 150 1 0 0 0 1 0 0 0 1 0_stud_box.ldr
1 14 130 -2 130 1 0 0 0 1 0 0 0 1 0_stud_box.ldr
1 14 150 -2 130 1 0 0 0 1 0 0 0 1 0_stud_box.ldr
1 14 130 -2 150 1 0 0 0 1 0 0 0 1 0_stud_box.ldr
1 14 150 -2 150 1 0 0 0 1 0 0 0 1 0_stud_box.ldr
1 14 130 -2 90 1 0 0 0 1 0 0 0 1 0_stud_box.ldr
1 14 150 -2 90 1 0 0 0 1 0 0 0 1 0_stud_box.ldr
1 14 130 -2 110 1 0 0 0 1 0 0 0 1 0_stud_box.ldr
1 14 150 -2 110 1 0 0 0 1 0 0 0 1 0_stud_box.ldr
1 14 90 -2 170 1 0 0 0 1 0 0 0 1 0_stud_box.ldr
1 14 110 -2 170 1 0 0 0 1 0 0 0 1 0_stud_box.ldr
1 14 90 -2 190 1 0 0 0 1 0 0 0 1 0_stud_box.ldr
1 14 110 -2 190 1 0 0 0 1 0 0 0 1 0_stud_box.ldr
1 14 90 -2 210 1 0 0 0 1 0 0 0 1 0_stud_box.ldr
1 14 110 -2 210 1 0 0 0 1 0 0 0 1 0_stud_box.ldr
1 14 90 -2 230 1 0 0 0 1 0 0 0 1 0_stud_box.ldr
1 14 110 -2 230 1 0 0 0 1 0 0 0 1 0_stud_box.ldr
1 14 130 -2 210 1 0 0 0 1 0 0 0 1 0_stud_box.ldr
1 14 150 -2 210 1 0 0 0 1 0 0 0 1 0_stud_box.ldr
1 14 130 -2 230 1 0 0 0 1 0 0 0 1 0_stud_box.ldr
1 14 150 -2 230 1 0 0 0 1 0 0 0 1 0_stud_box.ldr
1 14 130 -2 170 1 0 0 0 1 0 0 0 1 0_stud_box.ldr
1 14 150 -2 170 1 0 0 0 1 0 0 0 1 0_stud_box.ldr
1 14 130 -2 190 1 0 0 0 1 0 0 0 1 0_stud_box.ldr
1 14 150 -2 190 1 0 0 0 1 0 0 0 1 0_stud_box.ldr
1 14 170 -2 90 1 0 0 0 1 0 0 0 1 0_stud_box.ldr
1 14 190 -2 90 1 0 0 0 1 0 0 0 1 0_stud_box.ldr
1 14 170 -2 110 1 0 0 0 1 0 0 0 1 0_stud_box.ldr
1 14 190 -2 110 1 0 0 0 1 0 0 0 1 0_stud_box.ldr
1 14 170 -2 130 1 0 0 0 1 0 0 0 1 0_stud_box.ldr
1 14 190 -2 130 1 0 0 0 1 0 0 0 1 0_stud_box.ldr
1 14 170 -2 150 1 0 0 0 1 0 0 0 1 0_stud_box.ldr
1 14 190 -2 150 1 0 0 0 1 0 0 0 1 0_stud_box.ldr
1 14 210 -2 130 1 0 0 0 1 0 0 0 1 0_stud_box.ldr
1 14 230 -2 130 1 0 0 0 1 0 0 0 1 0_stud_box.ldr
1 14 210 -2 150 1 0 0 0 1 0 0 0 1 0_stud_box.ldr
1 14 230 -2 150 1 0 0 0 1 0 0 0 1 0_stud_box.ldr
1 14 210 -2 90 1 0 0 0 1 0 0 0 1 0_stud_box.ldr
1 14 230 -2 90 1 0 0 0 1 0 0 0 1 0_stud_box.ldr
1 14 210 -2 110 1 0 0 0 1 0 0 0 1 0_stud_box.ldr
1 14 230 -2 110 1 0 0 0 1 0 0 0 1 0_stud_box.ldr
1 14 170 -2 170 1 0 0 0 1 0 0 0 1 0_stud_box.ldr
1 14 190 -2 170 1 0 0 0 1 0 0 0 1 0_stud_box.ldr
1 14 170 -2 190 1 0 0 0 1 0 0 0 1 0_stud_box.ldr
1 14 190 -2 190 1 0 0 0 1 0 0 0 1 0_stud_box.ldr
1 14 170 -2 210 1 0 0 0 1 0 0 0 1 0_stud_box.ldr
1 14 190 -2 210 1 0 0 0 1 0 0 0 1 0_stud_box.ldr
1 14 170 -2 230 1 0 0 0 1 0 0 0 1 0_stud_box.ldr
1 14 190 -2 230 1 0 0 0 1 0 0 0 1 0_stud_box.ldr
1 14 210 -2 210 1 0 0 0 1 0 0 0 1 0_stud_box.ldr
1 14 230 -2 210 1 0 0 0 1 0 0 0 1 0_stud_box.ldr
1 14 210 -2 230 1 0 0 0 1 0 0 0 1 0_stud_box.ldr
1 14 230 -2 230 1 0 0 0 1 0 0 0 1 0_stud_box.ldr
1 14 210 -2 170 1 0 0 0 1 0 0 0 1 0_stud_box.ldr
1 14 230 -2 170 1 0 0 0 1 0 0 0 1 0_stud_box.ldr
1 14 210 -2 190 1 0 0 0 1 0 0 0 1 0_stud_box.ldr
1 14 230 -2 190 1 0 0 0 1 0 0 0 1 0_stud_box.ldr
1 14 90 -2 -70 1 0 0 0 1 0 0 0 1 0_stud_box.ldr
1 14 110 -2 -70 1 0 0 0 1 0 0 0 1 0_stud_box.ldr
1 14 90 -2 -50 1 0 0 0 1 0 0 0 1 0_stud_box.ldr
1 14 110 -2 -50 1 0 0 0 1 0 0 0 1 0_stud_box.ldr
1 14 90 -2 -30 1 0 0 0 1 0 0 0 1 0_stud_box.ldr
1 14 110 -2 -30 1 0 0 0 1 0 0 0 1 0_stud_box.ldr
1 14 90 -2 -10 1 0 0 0 1 0 0 0 1 0_stud_box.ldr
1 14 110 -2 -10 1 0 0 0 1 0 0 0 1 0_stud_box.ldr
1 14 130 -2 -30 1 0 0 0 1 0 0 0 1 0_stud_box.ldr
1 14 150 -2 -30 1 0 0 0 1 0 0 0 1 0_stud_box.ldr
1 14 130 -2 -10 1 0 0 0 1 0 0 0 1 0_stud_box.ldr
1 14 150 -2 -10 1 0 0 0 1 0 0 0 1 0_stud_box.ldr
1 14 130 -2 -70 1 0 0 0 1 0 0 0 1 0_stud_box.ldr
1 14 150 -2 -70 1 0 0 0 1 0 0 0 1 0_stud_box.ldr
1 14 130 -2 -50 1 0 0 0 1 0 0 0 1 0_stud_box.ldr
1 14 150 -2 -50 1 0 0 0 1 0 0 0 1 0_stud_box.ldr
1 14 90 -2 10 1 0 0 0 1 0 0 0 1 0_stud_box.ldr
1 14 110 -2 10 1 0 0 0 1 0 0 0 1 0_stud_box.ldr
1 14 90 -2 30 1 0 0 0 1 0 0 0 1 0_stud_box.ldr
1 14 110 -2 30 1 0 0 0 1 0 0 0 1 0_stud_box.ldr
1 14 90 -2 50 1 0 0 0 1 0 0 0 1 0_stud_box.ldr
1 14 110 -2 50 1 0 0 0 1 0 0 0 1 0_stud_box.ldr
1 14 90 -2 70 1 0 0 0 1 0 0 0 1 0_stud_box.ldr
1 14 110 -2 70 1 0 0 0 1 0 0 0 1 0_stud_box.ldr
1 14 130 -2 50 1 0 0 0 1 0 0 0 1 0_stud_box.ldr
1 14 150 -2 50 1 0 0 0 1 0 0 0 1 0_stud_box.ldr
1 14 130 -2 70 1 0 0 0 1 0 0 0 1 0_stud_box.ldr
1 14 150 -2 70 1 0 0 0 1 0 0 0 1 0_stud_box.ldr
1 14 130 -2 10 1 0 0 0 1 0 0 0 1 0_stud_box.ldr
1 14 150 -2 10 1 0 0 0 1 0 0 0 1 0_stud_box.ldr
1 14 130 -2 30 1 0 0 0 1 0 0 0 1 0_stud_box.ldr
1 14 150 -2 30 1 0 0 0 1 0 0 0 1 0_stud_box.ldr
1 14 170 -2 -70 1 0 0 0 1 0 0 0 1 0_stud_box.ldr
1 14 190 -2 -70 1 0 0 0 1 0 0 0 1 0_stud_box.ldr
1 14 170 -2 -50 1 0 0 0 1 0 0 0 1 0_stud_box.ldr
1 14 190 -2 -50 1 0 0 0 1 0 0 0 1 0_stud_box.ldr
1 14 170 -2 -30 1 0 0 0 1 0 0 0 1 0_stud_box.ldr
1 14 190 -2 -30 1 0 0 0 1 0 0 0 1 0_stud_box.ldr
1 14 170 -2 -10 1 0 0 0 1 0 0 0 1 0_stud_box.ldr
1 14 190 -2 -10 1 0 0 0 1 0 0 0 1 0_stud_box.ldr
1 14 210 -2 -30 1 0 0 0 1 0 0 0 1 0_stud_box.ldr
1 14 230 -2 -30 1 0 0 0 1 0 0 0 1 0_stud_box.ldr
1 14 210 -2 -10 1 0 0 0 1 0 0 0 1 0_stud_box.ldr
1 14 230 -2 -10 1 0 0 0 1 0 0 0 1 0_stud_box.ldr
1 14 210 -2 -70 1 0 0 0 1 0 0 0 1 0_stud_box.ldr
1 14 230 -2 -70 1 0 0 0 1 0 0 0 1 0_stud_box.ldr
1 14 210 -2 -50 1 0 0 0 1 0 0 0 1 0_stud_box.ldr
1 14 230 -2 -50 1 0 0 0 1 0 0 0 1 0_stud_box.ldr
1 14 170 -2 10 1 0 0 0 1 0 0 0 1 0_stud_box.ldr
1 14 190 -2 10 1 0 0 0 1 0 0 0 1 0_stud_box.ldr
1 14 170 -2 30 1 0 0 0 1 0 0 0 1 0_stud_box.ldr
1 14 190 -2 30 1 0 0 0 1 0 0 0 1 0_stud_box.ldr
1 14 170 -2 50 1 0 0 0 1 0 0 0 1 0_stud_box.ldr
1 14 190 -2 50 1 0 0 0 1 0 0 0 1 0_stud_box.ldr
1 14 170 -2 70 1 0 0 0 1 0 0 0 1 0_stud_box.ldr
1 14 190 -2 70 1 0 0 0 1 0 0 0 1 0_stud_box.ldr
1 14 210 -2 50 1 0 0 0 1 0 0 0 1 0_stud_box.ldr
1 14 230 -2 50 1 0 0 0 1 0 0 0 1 0_stud_box.ldr
1 14 210 -2 70 1 0 0 0 1 0 0 0 1 0_stud_box.ldr
1 14 230 -2 70 1 0 0 0 1 0 0 0 1 0_stud_box.ldr
1 14 210 -2 10 1 0 0 0 1 0 0 0 1 0_stud_box.ldr
1 14 230 -2 10 1 0 0 0 1 0 0 0 1 0_stud_box.ldr
1 14 210 -2 30 1 0 0 0 1 0 0 0 1 0_stud_box.ldr
1 14 230 -2 30 1 0 0 0 1 0 0 0 1 0_stud_box.ldr
1 14 90 -2 -230 1 0 0 0 1 0 0 0 1 0_stud_box.ldr
1 14 110 -2 -230 1 0 0 0 1 0 0 0 1 0_stud_box.ldr
1 14 90 -2 -210 1 0 0 0 1 0 0 0 1 0_stud_box.ldr
1 14 110 -2 -210 1 0 0 0 1 0 0 0 1 0_stud_box.ldr
1 14 90 -2 -190 1 0 0 0 1 0 0 0 1 0_stud_box.ldr
1 14 110 -2 -190 1 0 0 0 1 0 0 0 1 0_stud_box.ldr
1 14 90 -2 -170 1 0 0 0 1 0 0 0 1 0_stud_box.ldr
1 14 110 -2 -170 1 0 0 0 1 0 0 0 1 0_stud_box.ldr
1 14 130 -2 -190 1 0 0 0 1 0 0 0 1 0_stud_box.ldr
1 14 150 -2 -190 1 0 0 0 1 0 0 0 1 0_stud_box.ldr
1 14 130 -2 -170 1 0 0 0 1 0 0 0 1 0_stud_box.ldr
1 14 150 -2 -170 1 0 0 0 1 0 0 0 1 0_stud_box.ldr
1 14 130 -2 -230 1 0 0 0 1 0 0 0 1 0_stud_box.ldr
1 14 150 -2 -230 1 0 0 0 1 0 0 0 1 0_stud_box.ldr
1 14 130 -2 -210 1 0 0 0 1 0 0 0 1 0_stud_box.ldr
1 14 150 -2 -210 1 0 0 0 1 0 0 0 1 0_stud_box.ldr
1 14 90 -2 -150 1 0 0 0 1 0 0 0 1 0_stud_box.ldr
1 14 110 -2 -150 1 0 0 0 1 0 0 0 1 0_stud_box.ldr
1 14 90 -2 -130 1 0 0 0 1 0 0 0 1 0_stud_box.ldr
1 14 110 -2 -130 1 0 0 0 1 0 0 0 1 0_stud_box.ldr
1 14 90 -2 -110 1 0 0 0 1 0 0 0 1 0_stud_box.ldr
1 14 110 -2 -110 1 0 0 0 1 0 0 0 1 0_stud_box.ldr
1 14 90 -2 -90 1 0 0 0 1 0 0 0 1 0_stud_box.ldr
1 14 110 -2 -90 1 0 0 0 1 0 0 0 1 0_stud_box.ldr
1 14 130 -2 -110 1 0 0 0 1 0 0 0 1 0_stud_box.ldr
1 14 150 -2 -110 1 0 0 0 1 0 0 0 1 0_stud_box.ldr
1 14 130 -2 -90 1 0 0 0 1 0 0 0 1 0_stud_box.ldr
1 14 150 -2 -90 1 0 0 0 1 0 0 0 1 0_stud_box.ldr
1 14 130 -2 -150 1 0 0 0 1 0 0 0 1 0_stud_box.ldr
1 14 150 -2 -150 1 0 0 0 1 0 0 0 1 0_stud_box.ldr
1 14 130 -2 -130 1 0 0 0 1 0 0 0 1 0_stud_box.ldr
1 14 150 -2 -130 1 0 0 0 1 0 0 0 1 0_stud_box.ldr
1 14 170 -2 -230 1 0 0 0 1 0 0 0 1 0_stud_box.ldr
1 14 190 -2 -230 1 0 0 0 1 0 0 0 1 0_stud_box.ldr
1 14 170 -2 -210 1 0 0 0 1 0 0 0 1 0_stud_box.ldr
1 14 190 -2 -210 1 0 0 0 1 0 0 0 1 0_stud_box.ldr
1 14 170 -2 -190 1 0 0 0 1 0 0 0 1 0_stud_box.ldr
1 14 190 -2 -190 1 0 0 0 1 0 0 0 1 0_stud_box.ldr
1 14 170 -2 -170 1 0 0 0 1 0 0 0 1 0_stud_box.ldr
1 14 190 -2 -170 1 0 0 0 1 0 0 0 1 0_stud_box.ldr
1 14 210 -2 -190 1 0 0 0 1 0 0 0 1 0_stud_box.ldr
1 14 230 -2 -190 1 0 0 0 1 0 0 0 1 0_stud_box.ldr
1 14 210 -2 -170 1 0 0 0 1 0 0 0 1 0_stud_box.ldr
1 14 230 -2 -170 1 0 0 0 1 0 0 0 1 0_stud_box.ldr
1 14 210 -2 -230 1 0 0 0 1 0 0 0 1 0_stud_box.ldr
1 14 230 -2 -230 1 0 0 0 1 0 0 0 1 0_stud_box.ldr
1 14 210 -2 -210 1 0 0 0 1 0 0 0 1 0_stud_box.ldr
1 14 230 -2 -210 1 0 0 0 1 0 0 0 1 0_stud_box.ldr
1 14 170 -2 -150 1 0 0 0 1 0 0 0 1 0_stud_box.ldr
1 14 190 -2 -150 1 0 0 0 1 0 0 0 1 0_stud_box.ldr
1 14 170 -2 -130 1 0 0 0 1 0 0 0 1 0_stud_box.ldr
1 14 190 -2 -130 1 0 0 0 1 0 0 0 1 0_stud_box.ldr
1 14 170 -2 -110 1 0 0 0 1 0 0 0 1 0_stud_box.ldr
1 14 190 -2 -110 1 0 0 0 1 0 0 0 1 0_stud_box.ldr
1 14 170 -2 -90 1 0 0 0 1 0 0 0 1 0_stud_box.ldr
1 14 190 -2 -90 1 0 0 0 1 0 0 0 1 0_stud_box.ldr
1 14 210 -2 -110 1 0 0 0 1 0 0 0 1 0_stud_box.ldr
1 14 230 -2 -110 1 0 0 0 1 0 0 0 1 0_stud_box.ldr
1 14 210 -2 -90 1 0 0 0 1 0 0 0 1 0_stud_box.ldr
1 14 230 -2 -90 1 0 0 0 1 0 0 0 1 0_stud_box.ldr
1 14 210 -2 -150 1 0 0 0 1 0 0 0 1 0_stud_box.ldr
1 14 230 -2 -150 1 0 0 0 1 0 0 0 1 0_stud_box.ldr
1 14 210 -2 -130 1 0 0 0 1 0 0 0 1 0_stud_box.ldr
1 14 230 -2 -130 1 0 0 0 1 0 0 0 1 0_stud_box.ldr
1 14 -310 -2 130 1 0 0 0 1 0 0 0 1 0_stud_box.ldr
1 14 -290 -2 130 1 0 0 0 1 0 0 0 1 0_stud_box.ldr
1 14 -310 -2 150 1 0 0 0 1 0 0 0 1 0_stud_box.ldr
1 14 -290 -2 150 1 0 0 0 1 0 0 0 1 0_stud_box.ldr
1 14 -310 -2 170 1 0 0 0 1 0 0 0 1 0_stud_box.ldr
1 14 -290 -2 170 1 0 0 0 1 0 0 0 1 0_stud_box.ldr
1 14 -310 -2 190 1 0 0 0 1 0 0 0 1 0_stud_box.ldr
1 14 -290 -2 190 1 0 0 0 1 0 0 0 1 0_stud_box.ldr
1 14 -270 -2 170 1 0 0 0 1 0 0 0 1 0_stud_box.ldr
1 14 -250 -2 170 1 0 0 0 1 0 0 0 1 0_stud_box.ldr
1 14 -270 -2 190 1 0 0 0 1 0 0 0 1 0_stud_box.ldr
1 14 -250 -2 190 1 0 0 0 1 0 0 0 1 0_stud_box.ldr
1 14 -270 -2 130 1 0 0 0 1 0 0 0 1 0_stud_box.ldr
1 14 -250 -2 130 1 0 0 0 1 0 0 0 1 0_stud_box.ldr
1 14 -270 -2 150 1 0 0 0 1 0 0 0 1 0_stud_box.ldr
1 14 -250 -2 150 1 0 0 0 1 0 0 0 1 0_stud_box.ldr
1 14 -310 -2 50 1 0 0 0 1 0 0 0 1 0_stud_box.ldr
1 14 -290 -2 50 1 0 0 0 1 0 0 0 1 0_stud_box.ldr
1 14 -310 -2 70 1 0 0 0 1 0 0 0 1 0_stud_box.ldr
1 14 -290 -2 70 1 0 0 0 1 0 0 0 1 0_stud_box.ldr
1 14 -310 -2 90 1 0 0 0 1 0 0 0 1 0_stud_box.ldr
1 14 -290 -2 90 1 0 0 0 1 0 0 0 1 0_stud_box.ldr
1 14 -310 -2 110 1 0 0 0 1 0 0 0 1 0_stud_box.ldr
1 14 -290 -2 110 1 0 0 0 1 0 0 0 1 0_stud_box.ldr
1 14 -270 -2 90 1 0 0 0 1 0 0 0 1 0_stud_box.ldr
1 14 -250 -2 90 1 0 0 0 1 0 0 0 1 0_stud_box.ldr
1 14 -270 -2 110 1 0 0 0 1 0 0 0 1 0_stud_box.ldr
1 14 -250 -2 110 1 0 0 0 1 0 0 0 1 0_stud_box.ldr
1 14 -270 -2 50 1 0 0 0 1 0 0 0 1 0_stud_box.ldr
1 14 -250 -2 50 1 0 0 0 1 0 0 0 1 0_stud_box.ldr
1 14 -270 -2 70 1 0 0 0 1 0 0 0 1 0_stud_box.ldr
1 14 -250 -2 70 1 0 0 0 1 0 0 0 1 0_stud_box.ldr
1 14 -310 -2 -30 1 0 0 0 1 0 0 0 1 0_stud_box.ldr
1 14 -290 -2 -30 1 0 0 0 1 0 0 0 1 0_stud_box.ldr
1 14 -310 -2 -10 1 0 0 0 1 0 0 0 1 0_stud_box.ldr
1 14 -290 -2 -10 1 0 0 0 1 0 0 0 1 0_stud_box.ldr
1 14 -310 -2 10 1 0 0 0 1 0 0 0 1 0_stud_box.ldr
1 14 -290 -2 10 1 0 0 0 1 0 0 0 1 0_stud_box.ldr
1 14 -310 -2 30 1 0 0 0 1 0 0 0 1 0_stud_box.ldr
1 14 -290 -2 30 1 0 0 0 1 0 0 0 1 0_stud_box.ldr
1 14 -270 -2 10 1 0 0 0 1 0 0 0 1 0_stud_box.ldr
1 14 -250 -2 10 1 0 0 0 1 0 0 0 1 0_stud_box.ldr
1 14 -270 -2 30 1 0 0 0 1 0 0 0 1 0_stud_box.ldr
1 14 -250 -2 30 1 0 0 0 1 0 0 0 1 0_stud_box.ldr
1 14 -270 -2 -30 1 0 0 0 1 0 0 0 1 0_stud_box.ldr
1 14 -250 -2 -30 1 0 0 0 1 0 0 0 1 0_stud_box.ldr
1 14 -270 -2 -10 1 0 0 0 1 0 0 0 1 0_stud_box.ldr
1 14 -250 -2 -10 1 0 0 0 1 0 0 0 1 0_stud_box.ldr
1 14 -310 -2 -110 1 0 0 0 1 0 0 0 1 0_stud_box.ldr
1 14 -290 -2 -110 1 0 0 0 1 0 0 0 1 0_stud_box.ldr
1 14 -310 -2 -90 1 0 0 0 1 0 0 0 1 0_stud_box.ldr
1 14 -290 -2 -90 1 0 0 0 1 0 0 0 1 0_stud_box.ldr
1 14 -310 -2 -70 1 0 0 0 1 0 0 0 1 0_stud_box.ldr
1 14 -290 -2 -70 1 0 0 0 1 0 0 0 1 0_stud_box.ldr
1 14 -310 -2 -50 1 0 0 0 1 0 0 0 1 0_stud_box.ldr
1 14 -290 -2 -50 1 0 0 0 1 0 0 0 1 0_stud_box.ldr
1 14 -270 -2 -70 1 0 0 0 1 0 0 0 1 0_stud_box.ldr
1 14 -250 -2 -70 1 0 0 0 1 0 0 0 1 0_stud_box.ldr
1 14 -270 -2 -50 1 0 0 0 1 0 0 0 1 0_stud_box.ldr
1 14 -250 -2 -50 1 0 0 0 1 0 0 0 1 0_stud_box.ldr
1 14 -270 -2 -110 1 0 0 0 1 0 0 0 1 0_stud_box.ldr
1 14 -250 -2 -110 1 0 0 0 1 0 0 0 1 0_stud_box.ldr
1 14 -270 -2 -90 1 0 0 0 1 0 0 0 1 0_stud_box.ldr
1 14 -250 -2 -90 1 0 0 0 1 0 0 0 1 0_stud_box.ldr
1 14 -310 -2 -190 1 0 0 0 1 0 0 0 1 0_stud_box.ldr
1 14 -290 -2 -190 1 0 0 0 1 0 0 0 1 0_stud_box.ldr
1 14 -310 -2 -170 1 0 0 0 1 0 0 0 1 0_stud_box.ldr
1 14 -290 -2 -170 1 0 0 0 1 0 0 0 1 0_stud_box.ldr
1 14 -310 -2 -150 1 0 0 0 1 0 0 0 1 0_stud_box.ldr
1 14 -290 -2 -150 1 0 0 0 1 0 0 0 1 0_stud_box.ldr
1 14 -310 -2 -130 1 0 0 0 1 0 0 0 1 0_stud_box.ldr
1 14 -290 -2 -130 1 0 0 0 1 0 0 0 1 0_stud_box.ldr
1 14 -270 -2 -150 1 0 0 0 1 0 0 0 1 0_stud_box.ldr
1 14 -250 -2 -150 1 0 0 0 1 0 0 0 1 0_stud_box.ldr
1 14 -270 -2 -130 1 0 0 0 1 0 0 0 1 0_stud_box.ldr
1 14 -250 -2 -130 1 0 0 0 1 0 0 0 1 0_stud_box.ldr
1 14 -270 -2 -190 1 0 0 0 1 0 0 0 1 0_stud_box.ldr
1 14 -250 -2 -190 1 0 0 0 1 0 0 0 1 0_stud_box.ldr
1 14 -270 -2 -170 1 0 0 0 1 0 0 0 1 0_stud_box.ldr
1 14 -250 -2 -170 1 0 0 0 1 0 0 0 1 0_stud_box.ldr
1 14 250 -2 130 1 0 0 0 1 0 0 0 1 0_stud_box.ldr
1 14 270 -2 130 1 0 0 0 1 0 0 0 1 0_stud_box.ldr
1 14 250 -2 150 1 0 0 0 1 0 0 0 1 0_stud_box.ldr
1 14 270 -2 150 1 0 0 0 1 0 0 0 1 0_stud_box.ldr
1 14 250 -2 170 1 0 0 0 1 0 0 0 1 0_stud_box.ldr
1 14 270 -2 170 1 0 0 0 1 0 0 0 1 0_stud_box.ldr
1 14 250 -2 190 1 0 0 0 1 0 0 0 1 0_stud_box.ldr
1 14 270 -2 190 1 0 0 0 1 0 0 0 1 0_stud_box.ldr
1 14 290 -2 170 1 0 0 0 1 0 0 0 1 0_stud_box.ldr
1 14 310 -2 170 1 0 0 0 1 0 0 0 1 0_stud_box.ldr
1 14 290 -2 190 1 0 0 0 1 0 0 0 1 0_stud_box.ldr
1 14 310 -2 190 1 0 0 0 1 0 0 0 1 0_stud_box.ldr
1 14 290 -2 130 1 0 0 0 1 0 0 0 1 0_stud_box.ldr
1 14 310 -2 130 1 0 0 0 1 0 0 0 1 0_stud_box.ldr
1 14 290 -2 150 1 0 0 0 1 0 0 0 1 0_stud_box.ldr
1 14 310 -2 150 1 0 0 0 1 0 0 0 1 0_stud_box.ldr
1 14 250 -2 50 1 0 0 0 1 0 0 0 1 0_stud_box.ldr
1 14 270 -2 50 1 0 0 0 1 0 0 0 1 0_stud_box.ldr
1 14 250 -2 70 1 0 0 0 1 0 0 0 1 0_stud_box.ldr
1 14 270 -2 70 1 0 0 0 1 0 0 0 1 0_stud_box.ldr
1 14 250 -2 90 1 0 0 0 1 0 0 0 1 0_stud_box.ldr
1 14 270 -2 90 1 0 0 0 1 0 0 0 1 0_stud_box.ldr
1 14 250 -2 110 1 0 0 0 1 0 0 0 1 0_stud_box.ldr
1 14 270 -2 110 1 0 0 0 1 0 0 0 1 0_stud_box.ldr
1 14 290 -2 90 1 0 0 0 1 0 0 0 1 0_stud_box.ldr
1 14 310 -2 90 1 0 0 0 1 0 0 0 1 0_stud_box.ldr
1 14 290 -2 110 1 0 0 0 1 0 0 0 1 0_stud_box.ldr
1 14 310 -2 110 1 0 0 0 1 0 0 0 1 0_stud_box.ldr
1 14 290 -2 50 1 0 0 0 1 0 0 0 1 0_stud_box.ldr
1 14 310 -2 50 1 0 0 0 1 0 0 0 1 0_stud_box.ldr
1 14 290 -2 70 1 0 0 0 1 0 0 0 1 0_stud_box.ldr
1 14 310 -2 70 1 0 0 0 1 0 0 0 1 0_stud_box.ldr
1 14 250 -2 -30 1 0 0 0 1 0 0 0 1 0_stud_box.ldr
1 14 270 -2 -30 1 0 0 0 1 0 0 0 1 0_stud_box.ldr
1 14 250 -2 -10 1 0 0 0 1 0 0 0 1 0_stud_box.ldr
1 14 270 -2 -10 1 0 0 0 1 0 0 0 1 0_stud_box.ldr
1 14 250 -2 10 1 0 0 0 1 0 0 0 1 0_stud_box.ldr
1 14 270 -2 10 1 0 0 0 1 0 0 0 1 0_stud_box.ldr
1 14 250 -2 30 1 0 0 0 1 0 0 0 1 0_stud_box.ldr
1 14 270 -2 30 1 0 0 0 1 0 0 0 1 0_stud_box.ldr
1 14 290 -2 10 1 0 0 0 1 0 0 0 1 0_stud_box.ldr
1 14 310 -2 10 1 0 0 0 1 0 0 0 1 0_stud_box.ldr
1 14 290 -2 30 1 0 0 0 1 0 0 0 1 0_stud_box.ldr
1 14 310 -2 30 1 0 0 0 1 0 0 0 1 0_stud_box.ldr
1 14 290 -2 -30 1 0 0 0 1 0 0 0 1 0_stud_box.ldr
1 14 310 -2 -30 1 0 0 0 1 0 0 0 1 0_stud_box.ldr
1 14 290 -2 -10 1 0 0 0 1 0 0 0 1 0_stud_box.ldr
1 14 310 -2 -10 1 0 0 0 1 0 0 0 1 0_stud_box.ldr
1 14 250 -2 -110 1 0 0 0 1 0 0 0 1 0_stud_box.ldr
1 14 270 -2 -110 1 0 0 0 1 0 0 0 1 0_stud_box.ldr
1 14 250 -2 -90 1 0 0 0 1 0 0 0 1 0_stud_box.ldr
1 14 270 -2 -90 1 0 0 0 1 0 0 0 1 0_stud_box.ldr
1 14 250 -2 -70 1 0 0 0 1 0 0 0 1 0_stud_box.ldr
1 14 270 -2 -70 1 0 0 0 1 0 0 0 1 0_stud_box.ldr
1 14 250 -2 -50 1 0 0 0 1 0 0 0 1 0_stud_box.ldr
1 14 270 -2 -50 1 0 0 0 1 0 0 0 1 0_stud_box.ldr
1 14 290 -2 -70 1 0 0 0 1 0 0 0 1 0_stud_box.ldr
1 14 310 -2 -70 1 0 0 0 1 0 0 0 1 0_stud_box.ldr
1 14 290 -2 -50 1 0 0 0 1 0 0 0 1 0_stud_box.ldr
1 14 310 -2 -50 1 0 0 0 1 0 0 0 1 0_stud_box.ldr
1 14 290 -2 -110 1 0 0 0 1 0 0 0 1 0_stud_box.ldr
1 14 310 -2 -110 1 0 0 0 1 0 0 0 1 0_stud_box.ldr
1 14 290 -2 -90 1 0 0 0 1 0 0 0 1 0_stud_box.ldr
1 14 310 -2 -90 1 0 0 0 1 0 0 0 1 0_stud_box.ldr
1 14 250 -2 -190 1 0 0 0 1 0 0 0 1 0_stud_box.ldr
1 14 270 -2 -190 1 0 0 0 1 0 0 0 1 0_stud_box.ldr
1 14 250 -2 -170 1 0 0 0 1 0 0 0 1 0_stud_box.ldr
1 14 270 -2 -170 1 0 0 0 1 0 0 0 1 0_stud_box.ldr
1 14 250 -2 -150 1 0 0 0 1 0 0 0 1 0_stud_box.ldr
1 14 270 -2 -150 1 0 0 0 1 0 0 0 1 0_stud_box.ldr
1 14 250 -2 -130 1 0 0 0 1 0 0 0 1 0_stud_box.ldr
1 14 270 -2 -130 1 0 0 0 1 0 0 0 1 0_stud_box.ldr
1 14 290 -2 -150 1 0 0 0 1 0 0 0 1 0_stud_box.ldr
1 14 310 -2 -150 1 0 0 0 1 0 0 0 1 0_stud_box.ldr
1 14 290 -2 -130 1 0 0 0 1 0 0 0 1 0_stud_box.ldr
1 14 310 -2 -130 1 0 0 0 1 0 0 0 1 0_stud_box.ldr
1 14 290 -2 -190 1 0 0 0 1 0 0 0 1 0_stud_box.ldr
1 14 310 -2 -190 1 0 0 0 1 0 0 0 1 0_stud_box.ldr
1 14 290 -2 -170 1 0 0 0 1 0 0 0 1 0_stud_box.ldr
1 14 310 -2 -170 1 0 0 0 1 0 0 0 1 0_stud_box.ldr
1 14 250 -2 210 1 0 0 0 1 0 0 0 1 0_stud_box.ldr
1 14 270 -2 210 1 0 0 0 1 0 0 0 1 0_stud_box.ldr
1 14 250 -2 230 1 0 0 0 1 0 0 0 1 0_stud_box.ldr
1 14 270 -2 230 1 0 0 0 1 0 0 0 1 0_stud_box.ldr
1 14 250 -2 -230 1 0 0 0 1 0 0 0 1 0_stud_box.ldr
1 14 270 -2 -230 1 0 0 0 1 0 0 0 1 0_stud_box.ldr
1 14 250 -2 -210 1 0 0 0 1 0 0 0 1 0_stud_box.ldr
1 14 270 -2 -210 1 0 0 0 1 0 0 0 1 0_stud_box.ldr
1 14 -270 -2 210 1 0 0 0 1 0 0 0 1 0_stud_box.ldr
1 14 -250 -2 210 1 0 0 0 1 0 0 0 1 0_stud_box.ldr
1 14 -270 -2 230 1 0 0 0 1 0 0 0 1 0_stud_box.ldr
1 14 -250 -2 230 1 0 0 0 1 0 0 0 1 0_stud_box.ldr
1 14 -270 -2 -230 1 0 0 0 1 0 0 0 1 0_stud_box.ldr
1 14 -250 -2 -230 1 0 0 0 1 0 0 0 1 0_stud_box.ldr
1 14 -270 -2 -210 1 0 0 0 1 0 0 0 1 0_stud_box.ldr
1 14 -250 -2 -210 1 0 0 0 1 0 0 0 1 0_stud_box.ldr
1 14 290 -2 230 1 0 0 0 1 0 0 0 1 0_stud_box.ldr
1 14 290 -2 210 1 0 0 0 1 0 0 0 1 0_stud_box.ldr
1 14 310 -2 210 1 0 0 0 1 0 0 0 1 0_stud_box.ldr
1 14 -290 -2 230 1 0 0 0 1 0 0 0 1 0_stud_box.ldr
1 14 -290 -2 210 1 0 0 0 1 0 0 0 1 0_stud_box.ldr
1 14 -310 -2 210 1 0 0 0 1 0 0 0 1 0_stud_box.ldr
1 14 -310 -2 -210 1 0 0 0 1 0 0 0 1 0_stud_box.ldr
1 14 -290 -2 -230 1 0 0 0 1 0 0 0 1 0_stud_box.ldr
1 14 -290 -2 -210 1 0 0 0 1 0 0 0 1 0_stud_box.ldr
1 14 290 -2 -230 1 0 0 0 1 0 0 0 1 0_stud_box.ldr
1 14 290 -2 -210 1 0 0 0 1 0 0 0 1 0_stud_box.ldr
1 14 310 -2 -210 1 0 0 0 1 0 0 0 1 0_stud_box.ldr
1 4 0 2 0 320 0 0 0 2 0 0 0 240 0_colision_box.ldr
1 2 0 0 0 320 0 0 0 4 0 0 0 240 0_bound_box.ldr