0 Name: 1_enhanced
1 16 0 0 0 1 0 0 0 1 0 0 0 1 1.dat
1 14 30 -2 10 1 0 0 0 1 0 0 0 1 0_stud_box.ldr
1 14 10 -2 10 1 0 0 0 1 0 0 0 1 0_stud_box.ldr
1 14 -10 -2 10 1 0 0 0 1 0 0 0 1 0_stud_box.ldr
1 14 -30 -2 10 1 0 0 0 1 0 0 0 1 0_stud_box.ldr
1 14 30 -2 -10 1 0 0 0 1 0 0 0 1 0_stud_box.ldr
1 14 10 -2 -10 1 0 0 0 1 0 0 0 1 0_stud_box.ldr
1 14 -10 -2 -10 1 0 0 0 1 0 0 0 1 0_stud_box.ldr
1 14 -30 -2 -10 1 0 0 0 1 0 0 0 1 0_stud_box.ldr
1 1 30 94 10 1 0 0 0 -1 0 0 0 -1 0_rec_box.ldr
1 1 10 94 10 1 0 0 0 -1 0 0 0 -1 0_rec_box.ldr
1 1 -10 94 10 1 0 0 0 -1 0 0 0 -1 0_rec_box.ldr
1 1 -30 94 10 1 0 0 0 -1 0 0 0 -1 0_rec_box.ldr
1 1 30 94 -10 1 0 0 0 -1 0 0 0 -1 0_rec_box.ldr
1 1 10 94 -10 1 0 0 0 -1 0 0 0 -1 0_rec_box.ldr
1 1 -10 94 -10 1 0 0 0 -1 0 0 0 -1 0_rec_box.ldr
1 1 -30 94 -10 1 0 0 0 -1 0 0 0 -1 0_rec_box.ldr
1 4 0 46 0 40 0 0 0 46 0 0 0 20 0_colision_box.ldr
1 2 0 46 0 40 0 0 0 50 0 0 0 20 0_bound_box.ldr